<svg xmlns="http://www.w3.org/2000/svg" viewBox="0 0 1200 750"><defs><linearGradient id="g" x2="1" y2="1"><stop stop-color="#fce7f3"/><stop offset="1" stop-color="#f8fafc"/></linearGradient><filter id="s"><feDropShadow dx="0" dy="20" stdDeviation="24" flood-color="#0f172a" flood-opacity=".12"/></filter></defs><rect x="0" y="0" width="1200" height="750" rx="0" fill="url(#g)" /><circle cx="1060" cy="80" r="230" fill="#be185d" opacity=".07"/><rect x="70" y="65" width="1060" height="620" rx="24" fill="white" filter="url(#s)"/><rect x="70" y="65" width="1060" height="54" rx="24" fill="#f1f5f9" /><rect x="70" y="93" width="1060" height="26" rx="0" fill="#f1f5f9" /><circle cx="105" cy="92" r="6" fill="#fda4af"/><circle cx="126" cy="92" r="6" fill="#fde68a"/><circle cx="147" cy="92" r="6" fill="#86efac"/><rect x="70" y="119" width="210" height="566" rx="0" fill="#f8fafc" /><rect x="106" y="156" width="50" height="50" rx="14" fill="#be185d" /><circle cx="131" cy="181" r="11" fill="none" stroke="white" stroke-width="4"/><rect x="106" y="255" width="125" height="13" rx="6.5" fill="#be185d" /><rect x="106" y="305" width="105" height="12" rx="6" fill="#cbd5e1" /><rect x="106" y="350" width="113" height="12" rx="6" fill="#cbd5e1" /><rect x="106" y="395" width="121" height="12" rx="6" fill="#cbd5e1" /><rect x="106" y="620" width="115" height="12" rx="6" fill="#cbd5e1" /><rect x="325" y="165" width="330" height="22" rx="11" fill="#1e293b" /><rect x="325" y="205" width="210" height="11" rx="5.5" fill="#94a3b8" /><rect x="985" y="165" width="100" height="36" rx="10" fill="#be185d" /><rect x="325" y="255" width="225" height="120" rx="18" fill="#fce7f3" /><rect x="352" y="282" width="90" height="12" rx="6" fill="#be185d" /><rect x="352" y="323" width="135" height="25" rx="12.5" fill="#be185d" /><rect x="575" y="255" width="225" height="120" rx="18" fill="#f1f5f9" /><rect x="602" y="282" width="90" height="12" rx="6" fill="#cbd5e1" /><rect x="602" y="323" width="135" height="25" rx="12.5" fill="#334155" /><rect x="825" y="255" width="245" height="120" rx="18" fill="#fce7f3" /><rect x="852" y="282" width="95" height="12" rx="6" fill="#be185d" /><circle cx="892" cy="330" r="20" fill="#be185d" opacity=".65"/><rect x="925" y="322" width="105" height="15" rx="7.5" fill="#be185d" /><rect x="325" y="405" width="420" height="230" rx="18" fill="#f8fafc" /><path d="M355 570 C420 525 455 548 505 492 S595 500 645 447 S700 469 715 430" fill="none" stroke="#be185d" stroke-width="8" stroke-linecap="round"/><rect x="355" y="595" width="345" height="12" rx="6" fill="#cbd5e1" /><rect x="770" y="405" width="300" height="230" rx="18" fill="#f8fafc" /><rect x="795" y="510" width="23" height="55" rx="6" fill="#be185d" opacity="0.4"/><rect x="832" y="475" width="23" height="90" rx="6" fill="#be185d" opacity="0.47000000000000003"/><rect x="869" y="500" width="23" height="65" rx="6" fill="#be185d" opacity="0.54"/><rect x="906" y="445" width="23" height="120" rx="6" fill="#be185d" opacity="0.6100000000000001"/><rect x="943" y="483" width="23" height="82" rx="6" fill="#be185d" opacity="0.68"/><rect x="980" y="420" width="23" height="145" rx="6" fill="#be185d" opacity="0.75"/><rect x="1017" y="455" width="23" height="110" rx="6" fill="#be185d" opacity="0.8200000000000001"/><rect x="795" y="590" width="200" height="12" rx="6" fill="#cbd5e1" /></svg>