<svg xmlns="http://www.w3.org/2000/svg" viewBox="0 0 1000 650"><defs><linearGradient id="g" x2="1" y2="1"><stop stop-color="#e0f7fa"/><stop offset="1" stop-color="#f8fafc"/></linearGradient><filter id="s"><feDropShadow dx="0" dy="15" stdDeviation="25" flood-color="#0f172a" flood-opacity=".12"/></filter></defs><rect width="1000" height="650" fill="url(#g)"/><circle cx="155" cy="105" r="155" fill="#3babd7" opacity=".08"/><circle cx="875" cy="560" r="210" fill="#3babd7" opacity=".07"/><rect x="195" y="105" width="610" height="440" rx="25" fill="white" filter="url(#s)"/><rect x="195" y="105" width="610" height="47" rx="25" fill="#f1f5f9"/><rect x="195" y="132" width="610" height="20" fill="#f1f5f9"/><circle cx="228" cy="129" r="5" fill="#c0b0a3"/><circle cx="247" cy="129" r="5" fill="#e2dddb"/><rect x="228" y="185" width="110" height="15" rx="7" fill="#3babd7"/><rect x="228" y="227" width="95" height="10" rx="5" fill="#cbd5e1"/><rect x="228" y="267" width="115" height="10" rx="5" fill="#cbd5e1"/><rect x="228" y="307" width="80" height="10" rx="5" fill="#cbd5e1"/><rect x="228" y="347" width="108" height="10" rx="5" fill="#cbd5e1"/><rect x="228" y="480" width="105" height="11" rx="5" fill="#cbd5e1"/><rect x="385" y="180" width="260" height="19" rx="9" fill="#1e293b"/><rect x="385" y="215" width="178" height="10" rx="5" fill="#94a3b8"/><rect x="410" y="270" width="105" height="66" rx="13" fill="#fff" opacity="0.75" stroke="#3babd7" stroke-opacity=".16"/><rect x="540" y="270" width="105" height="66" rx="13" fill="#fff" opacity="0.75" stroke="#3babd7" stroke-opacity=".16"/><rect x="670" y="270" width="105" height="66" rx="13" fill="#fff" opacity="0.75" stroke="#3babd7" stroke-opacity=".16"/><rect x="410" y="365" width="105" height="66" rx="13" fill="#fff" opacity="0.75" stroke="#3babd7" stroke-opacity=".16"/><rect x="540" y="365" width="105" height="66" rx="13" fill="#fff" opacity="0.75" stroke="#3babd7" stroke-opacity=".16"/><rect x="670" y="365" width="105" height="66" rx="13" fill="#3babd7" opacity="0.9" stroke="#3babd7" stroke-opacity=".16"/><rect x="410" y="460" width="105" height="66" rx="13" fill="#fff" opacity="0.75" stroke="#3babd7" stroke-opacity=".16"/><rect x="540" y="460" width="105" height="66" rx="13" fill="#fff" opacity="0.75" stroke="#3babd7" stroke-opacity=".16"/><rect x="670" y="460" width="105" height="66" rx="13" fill="#fff" opacity="0.75" stroke="#3babd7" stroke-opacity=".16"/></svg>